<svg width="81" height="68" viewBox="0 0 81 68" fill="none" xmlns="http://www.w3.org/2000/svg">
<path d="M32.3704 0.500589C39.0996 0.477481 45.3456 2.79825 50.3524 6.70287C50.3728 6.71878 50.3958 6.73107 50.4161 6.74704C56.9969 10.7958 61.8815 17.1564 63.7367 24.5966C63.7416 24.616 63.751 24.6338 63.7558 24.6533C65.1531 28.6813 65.8765 32.3307 66.23 35.5182C67.1597 36.1323 68.2429 36.8932 68.9973 37.5752C70.273 38.7281 73.093 41.4412 75.6226 44.238C76.8874 45.6364 78.081 47.0517 78.9703 48.3203C79.8595 49.5889 80.5006 50.639 80.5006 51.6897C80.5006 52.855 79.9279 53.9696 79.1042 55.0526C78.2804 56.1356 77.1836 57.2008 75.9861 58.22C73.5907 60.2585 70.792 62.1293 69.1249 63.3938C66.8789 65.0975 65.3156 66.1626 63.0991 66.7632C60.8822 67.3639 58.0925 67.5014 53.2599 67.5014C49.2034 67.5014 42.6577 65.7562 36.3556 63.7282C30.0564 61.7013 24.0726 59.3843 21.3324 58.1759C21.3307 58.1751 21.3277 58.1767 21.326 58.1759C16.4241 56.0809 10.0833 52.8272 6.28995 49.9608C6.28358 49.9563 6.27718 49.9527 6.27084 49.9482C2.69934 47.4177 0.500084 44.2763 0.500084 40.812C0.500084 37.9852 1.98733 35.3732 4.45988 33.1397C4.32596 32.1127 4.23186 31.0758 4.20483 30.0164C3.79085 13.7969 16.4064 0.554635 32.3699 0.500121L32.3704 0.500589Z" fill="black"/>
<path d="M32.7091 2.29165C39.0288 2.26977 44.8967 4.47531 49.5943 8.18878C55.8093 12.0226 60.4167 18.0675 62.1465 25.1268C63.5237 29.1149 64.2172 32.7206 64.54 35.8393C65.4582 36.4403 66.6321 37.2729 67.3659 37.9413C69.7655 40.1278 78.1742 48.4026 78.1742 51.0905C78.1742 54.6963 70.7923 59.3796 67.5318 61.8733C63.2489 65.1487 61.9669 65.7093 52.7318 65.7093C45.3556 65.7093 27.5662 59.0504 22.3976 56.7523C17.7318 54.7422 11.6407 51.5887 8.09922 48.8863C4.77096 46.5139 2.82799 43.6573 2.82799 40.5816C2.82799 37.9839 4.21865 35.5449 6.65393 33.4185C6.50227 32.3393 6.40793 31.2436 6.37973 30.1296C5.99177 14.8043 17.778 2.34275 32.7084 2.29186L32.7091 2.29165Z" fill="url(#paint0_radial_63_438)"/>
<path opacity="0.8" d="M6.65353 33.4191C6.65353 34.0829 6.70382 34.7381 6.80019 35.3848C5.57511 37.0031 4.89997 38.7526 4.89997 40.582C4.89997 42.6755 5.77506 44.6658 7.3549 46.4728C4.78672 44.4429 3.19105 42.1287 2.88497 39.6788C3.16766 37.419 4.50255 35.2972 6.65353 33.4191Z" fill="url(#paint1_radial_63_438)"/>
<path d="M32.7091 2.29165C39.0288 2.26977 44.8966 4.47531 49.5943 8.18878C55.8093 12.0226 60.4139 18.0701 62.1434 25.1294C63.5206 29.1175 64.218 32.7235 64.541 35.8421C64.541 50.559 44.9256 54.3938 35.9046 54.5703C22.6719 54.6599 6.65393 45.3223 6.65393 33.4177C6.50227 32.3385 6.40793 31.2427 6.37973 30.1288C5.99177 14.8035 17.778 2.34193 32.7084 2.29104L32.7091 2.29165Z" fill="url(#paint2_radial_63_438)"/>
<path opacity="0.55133" d="M6.37949 28.7045C6.40809 29.7878 6.50261 30.8582 6.65369 31.9106C6.59979 31.9554 6.54715 31.9992 6.49428 32.0442C6.43547 31.4121 6.3958 30.7734 6.3795 30.1294C6.36738 29.6505 6.3681 29.1775 6.37949 28.7045Z" fill="#FFFF04"/>
<path d="M2.88512 39.6788C3.26158 42.6916 5.58553 45.5034 9.27456 47.8278C13.1501 50.1908 18.021 53.0578 22.3974 55.0352C27.5646 57.3942 45.3552 64.2969 52.7316 64.4628C61.9669 64.6708 63.2487 64.1532 67.5316 61.0531C70.7315 58.7369 77.902 54.4486 78.1677 50.9639C78.1717 51.0086 78.174 51.0491 78.174 51.0911C78.174 54.6969 70.7921 59.3802 67.5316 61.8739C63.2488 65.1493 61.9667 65.7099 52.7316 65.7099C45.3554 65.7099 27.5722 59.0372 22.3975 56.7529C16.8659 54.3105 11.2784 51.448 7.14472 48.1626C4.40228 45.9423 2.82783 43.3509 2.82783 40.5822C2.82783 40.2789 2.84775 39.9775 2.88512 39.6788Z" fill="url(#paint3_radial_63_438)"/>
<g opacity="0.2" filter="url(#filter0_f_63_438)">
<path d="M6.20865 34.8502C8.94912 45.5069 21.2922 53.5987 35.898 53.5987C50.1906 53.5987 61.9294 45.8503 64.5059 35.5321C64.8194 36.4105 64.9983 37.3143 65.0306 38.2357C65.3381 46.9897 52.2954 54.0821 35.897 54.0821C19.4986 54.0821 5.9518 46.9899 5.64597 38.2357C5.60522 37.0754 5.80308 35.9407 6.20815 34.8514L6.20865 34.8502Z" fill="url(#paint4_radial_63_438)"/>
</g>
<path d="M32.7091 2.29165C39.0288 2.26977 44.8967 4.47531 49.5943 8.18878C50.5419 8.77332 51.4487 9.41411 52.3171 10.0972C57.8796 15.3533 61.4976 22.7996 61.7863 31.0585C61.8083 31.6881 61.8094 32.3156 61.7927 32.9352C61.7857 32.8626 61.7746 32.7915 61.7672 32.7189C60.0719 16.2035 46.2228 2.81284 30.8352 2.81284C28.6992 2.81284 26.6487 3.07473 24.701 3.5635C27.2198 2.7442 29.9104 2.30089 32.71 2.2912L32.7091 2.29165Z" fill="black"/>
<path d="M25.5592 3.30338C36.6487 5.63463 46.0602 17.7904 48.0741 33.8893C48.622 38.2684 48.5756 42.5674 48.0167 46.6314C48.1892 43.3605 48.0537 39.978 47.5768 36.5422C45.1057 18.7411 34.2843 5.59595 22.2113 4.51908C23.289 4.0409 24.4099 3.6342 25.5589 3.30403L25.5592 3.30338Z" fill="black"/>
<g opacity="0.4" filter="url(#filter1_f_63_438)">
<path d="M30.7007 9.04601C36.37 14.2492 41.2135 21.496 44.5867 29.9788C40.8308 29.4162 36.9142 29.1145 32.9089 29.1145C24.4221 29.1145 16.6297 30.4569 10.1166 32.7914C9.53746 19.5373 18.2853 9.40966 30.7021 9.04527L30.7007 9.04601Z" fill="url(#paint5_radial_63_438)"/>
</g>
<path opacity="0.5" d="M27.6793 7.87549C32.8038 12.3949 37.1821 18.6888 40.231 26.0565C36.8361 25.5678 33.2958 25.3058 29.6753 25.3058C22.0038 25.3058 14.9602 26.4717 9.07234 28.4994C8.54879 16.9875 16.4561 8.19194 27.6791 7.876L27.6793 7.87549Z" fill="url(#paint6_radial_63_438)"/>
<path opacity="0.62357" d="M2.88512 39.6788C3.27894 42.8308 5.80427 45.7628 9.79407 48.1465C14.5172 50.9077 18.4562 53.3161 22.3974 55.0352C27.5646 57.3942 45.3552 64.2969 52.7316 64.4628C61.9669 64.6708 63.2487 64.1532 67.5316 61.0531C70.7239 58.7424 77.8702 54.4695 78.1677 50.9891C77.9434 54.4883 70.7411 58.8859 67.5316 61.2501C63.2487 64.405 61.9667 64.9394 52.7316 64.838C45.3531 64.7566 27.564 58.0491 22.3954 55.7467C18.1634 53.6988 13.3294 51.138 9.35373 48.7257C5.44942 46.3287 3.05061 43.3713 2.83942 40.1797C2.8388 40.1713 2.84003 40.1628 2.83942 40.1543C2.84003 40.1458 2.8388 40.1373 2.83942 40.1289C2.84909 39.9783 2.86537 39.8266 2.88405 39.6772L2.88512 39.6788Z" fill="#FFDD55"/>
<g filter="url(#filter2_f_63_438)">
<path d="M59.7132 26.7217C55.624 13.9133 44.2869 3.49473 30.4891 3.49473C45.3786 6.84321 51.9674 20.4486 52.2714 30.3778C55.1639 29.7273 57.831 28.3002 59.713 26.7207L59.7132 26.7217Z" fill="url(#paint7_radial_63_438)"/>
</g>
<g filter="url(#filter3_f_63_438)">
<path d="M47.1212 51.4775L38.1334 52.5811V55.8917L47.1212 54.7881V51.4775Z" fill="#D4AA00"/>
</g>
<g filter="url(#filter4_f_63_438)">
<path d="M47.1212 51.4775L38.1334 52.5811L37.5112 49.8911L46.499 48.7876L47.1212 51.4775Z" fill="#FFD42A"/>
</g>
<g filter="url(#filter5_f_63_438)">
<path d="M37.3043 54.3763L38.1308 55.8943V52.58L37.5123 49.8891L37.3043 54.3763Z" fill="#FFD42A"/>
</g>
<g filter="url(#filter6_f_63_438)">
<path d="M14.1912 45.7897L21.75 49.3691L21.3152 52.6512L13.7564 49.0718L14.1912 45.7897Z" fill="#D4AA00"/>
</g>
<g filter="url(#filter7_f_63_438)">
<path d="M14.1912 45.7897L21.75 49.3691L22.6366 46.8744L15.0778 43.295L14.1912 45.7897Z" fill="#FFD42A"/>
</g>
<g filter="url(#filter8_f_63_438)">
<path d="M22.2249 51.3781L21.3171 52.6545L21.7524 49.3688L22.636 46.8721L22.2249 51.3781Z" fill="#FFD42A"/>
</g>
<g filter="url(#filter9_f_63_438)">
<path d="M63.2824 43.1269L60.1503 41.5328L60.2995 45.0397L63.2826 46.7932L63.2824 43.1269Z" fill="#F5CA1F"/>
</g>
<g filter="url(#filter10_f_63_438)">
<path d="M63.2824 43.1269L60.1503 41.5328L63.1334 37.3351L65.9674 38.5572L63.2824 43.1269Z" fill="#E4BA10"/>
</g>
<g filter="url(#filter11_f_63_438)">
<path d="M65.9688 38.5581L63.284 43.1256V46.7919L66.1634 41.9823L65.9688 38.5581Z" fill="#DAB20D"/>
</g>
<defs>
<filter id="filter0_f_63_438" x="-0.173275" y="29.0362" width="71.0232" height="30.86" filterUnits="userSpaceOnUse" color-interpolation-filters="sRGB">
<feFlood flood-opacity="0" result="BackgroundImageFix"/>
<feBlend mode="normal" in="SourceGraphic" in2="BackgroundImageFix" result="shape"/>
<feGaussianBlur stdDeviation="2.907" result="effect1_foregroundBlur_63_438"/>
</filter>
<filter id="filter1_f_63_438" x="5.77407" y="4.72985" width="43.128" height="32.3769" filterUnits="userSpaceOnUse" color-interpolation-filters="sRGB">
<feFlood flood-opacity="0" result="BackgroundImageFix"/>
<feBlend mode="normal" in="SourceGraphic" in2="BackgroundImageFix" result="shape"/>
<feGaussianBlur stdDeviation="2.15771" result="effect1_foregroundBlur_63_438"/>
</filter>
<filter id="filter2_f_63_438" x="27.7362" y="0.741919" width="34.7297" height="32.3887" filterUnits="userSpaceOnUse" color-interpolation-filters="sRGB">
<feFlood flood-opacity="0" result="BackgroundImageFix"/>
<feBlend mode="normal" in="SourceGraphic" in2="BackgroundImageFix" result="shape"/>
<feGaussianBlur stdDeviation="1.37641" result="effect1_foregroundBlur_63_438"/>
</filter>
<filter id="filter3_f_63_438" x="36.058" y="49.4021" width="13.1385" height="8.56493" filterUnits="userSpaceOnUse" color-interpolation-filters="sRGB">
<feFlood flood-opacity="0" result="BackgroundImageFix"/>
<feBlend mode="normal" in="SourceGraphic" in2="BackgroundImageFix" result="shape"/>
<feGaussianBlur stdDeviation="1.03769" result="effect1_foregroundBlur_63_438"/>
</filter>
<filter id="filter4_f_63_438" x="35.4358" y="46.7122" width="13.7608" height="7.94426" filterUnits="userSpaceOnUse" color-interpolation-filters="sRGB">
<feFlood flood-opacity="0" result="BackgroundImageFix"/>
<feBlend mode="normal" in="SourceGraphic" in2="BackgroundImageFix" result="shape"/>
<feGaussianBlur stdDeviation="1.03769" result="effect1_foregroundBlur_63_438"/>
</filter>
<filter id="filter5_f_63_438" x="35.229" y="47.8137" width="4.97719" height="10.156" filterUnits="userSpaceOnUse" color-interpolation-filters="sRGB">
<feFlood flood-opacity="0" result="BackgroundImageFix"/>
<feBlend mode="normal" in="SourceGraphic" in2="BackgroundImageFix" result="shape"/>
<feGaussianBlur stdDeviation="1.03769" result="effect1_foregroundBlur_63_438"/>
</filter>
<filter id="filter6_f_63_438" x="11.7866" y="43.8199" width="11.9332" height="10.8011" filterUnits="userSpaceOnUse" color-interpolation-filters="sRGB">
<feFlood flood-opacity="0" result="BackgroundImageFix"/>
<feBlend mode="normal" in="SourceGraphic" in2="BackgroundImageFix" result="shape"/>
<feGaussianBlur stdDeviation="0.984896" result="effect1_foregroundBlur_63_438"/>
</filter>
<filter id="filter7_f_63_438" x="12.2214" y="41.3252" width="12.3851" height="10.0137" filterUnits="userSpaceOnUse" color-interpolation-filters="sRGB">
<feFlood flood-opacity="0" result="BackgroundImageFix"/>
<feBlend mode="normal" in="SourceGraphic" in2="BackgroundImageFix" result="shape"/>
<feGaussianBlur stdDeviation="0.984896" result="effect1_foregroundBlur_63_438"/>
</filter>
<filter id="filter8_f_63_438" x="19.3474" y="44.9023" width="5.25841" height="9.72201" filterUnits="userSpaceOnUse" color-interpolation-filters="sRGB">
<feFlood flood-opacity="0" result="BackgroundImageFix"/>
<feBlend mode="normal" in="SourceGraphic" in2="BackgroundImageFix" result="shape"/>
<feGaussianBlur stdDeviation="0.984896" result="effect1_foregroundBlur_63_438"/>
</filter>
<filter id="filter9_f_63_438" x="57.8726" y="39.2551" width="7.68771" height="9.81584" filterUnits="userSpaceOnUse" color-interpolation-filters="sRGB">
<feFlood flood-opacity="0" result="BackgroundImageFix"/>
<feBlend mode="normal" in="SourceGraphic" in2="BackgroundImageFix" result="shape"/>
<feGaussianBlur stdDeviation="1.13887" result="effect1_foregroundBlur_63_438"/>
</filter>
<filter id="filter10_f_63_438" x="57.8726" y="35.0573" width="10.3725" height="10.3473" filterUnits="userSpaceOnUse" color-interpolation-filters="sRGB">
<feFlood flood-opacity="0" result="BackgroundImageFix"/>
<feBlend mode="normal" in="SourceGraphic" in2="BackgroundImageFix" result="shape"/>
<feGaussianBlur stdDeviation="1.13887" result="effect1_foregroundBlur_63_438"/>
</filter>
<filter id="filter11_f_63_438" x="61.0062" y="36.2804" width="7.43493" height="12.7893" filterUnits="userSpaceOnUse" color-interpolation-filters="sRGB">
<feFlood flood-opacity="0" result="BackgroundImageFix"/>
<feBlend mode="normal" in="SourceGraphic" in2="BackgroundImageFix" result="shape"/>
<feGaussianBlur stdDeviation="1.13887" result="effect1_foregroundBlur_63_438"/>
</filter>
<radialGradient id="paint0_radial_63_438" cx="0" cy="0" r="1" gradientUnits="userSpaceOnUse" gradientTransform="translate(59.0743 54.6788) rotate(-146.011) scale(58.2064 22.5444)">
<stop stop-color="#FFFF00"/>
<stop offset="0.60876" stop-color="#F7CC22"/>
<stop offset="1" stop-color="#D4AA00"/>
</radialGradient>
<radialGradient id="paint1_radial_63_438" cx="0" cy="0" r="1" gradientUnits="userSpaceOnUse" gradientTransform="translate(7.00547 40.843) rotate(97.0797) scale(9.55182 4.57218)">
<stop stop-opacity="0"/>
<stop offset="0.46497" stop-opacity="0"/>
<stop offset="1"/>
</radialGradient>
<radialGradient id="paint2_radial_63_438" cx="0" cy="0" r="1" gradientUnits="userSpaceOnUse" gradientTransform="translate(31.8986 27.463) rotate(-180) scale(34.159 36.5474)">
<stop stop-color="#FFFF00"/>
<stop offset="0.60876" stop-color="#F7CC22"/>
<stop offset="1" stop-color="#D4AA00"/>
</radialGradient>
<radialGradient id="paint3_radial_63_438" cx="0" cy="0" r="1" gradientUnits="userSpaceOnUse" gradientTransform="translate(55.0929 62.9285) rotate(180) scale(50.062 19.0852)">
<stop stop-color="#AA8800"/>
<stop offset="0.79034" stop-color="#A28100"/>
<stop offset="1" stop-color="#554400"/>
</radialGradient>
<radialGradient id="paint4_radial_63_438" cx="0" cy="0" r="1" gradientUnits="userSpaceOnUse" gradientTransform="translate(34.6902 52.8156) rotate(-180) scale(34.8704 12.0257)">
<stop stop-opacity="0"/>
<stop offset="0.1" stop-opacity="0"/>
<stop offset="1"/>
</radialGradient>
<radialGradient id="paint5_radial_63_438" cx="0" cy="0" r="1" gradientUnits="userSpaceOnUse" gradientTransform="translate(21.3047 16.75) rotate(119.078) scale(51.9911 31.914)">
<stop stop-color="white"/>
<stop offset="1" stop-color="white" stop-opacity="0"/>
</radialGradient>
<radialGradient id="paint6_radial_63_438" cx="0" cy="0" r="1" gradientUnits="userSpaceOnUse" gradientTransform="translate(19.187 14.5677) rotate(120.06) scale(45.5977 28.5689)">
<stop stop-color="white"/>
<stop offset="1" stop-color="white" stop-opacity="0"/>
</radialGradient>
<radialGradient id="paint7_radial_63_438" cx="0" cy="0" r="1" gradientUnits="userSpaceOnUse" gradientTransform="translate(55.0805 12.2598) rotate(120.059) scale(14.5859 35.1175)">
<stop stop-color="white"/>
<stop offset="1" stop-color="white" stop-opacity="0"/>
</radialGradient>
</defs>
</svg>
